<svg xmlns="http://www.w3.org/2000/svg" xmlns:xlink="http://www.w3.org/1999/xlink" width="500" zoomAndPan="magnify" viewBox="0 0 375 374.999991" height="500" preserveAspectRatio="xMidYMid meet" version="1.0"><defs><g/><clipPath id="id1"><path d="M 129.667969 136.800781 L 245 136.800781 L 245 231.300781 L 129.667969 231.300781 Z M 129.667969 136.800781 " clip-rule="nonzero"/></clipPath></defs><rect x="-37.5" width="450" fill="#ffffff" y="-37.499999" height="449.999989" fill-opacity="1"/><rect x="-37.5" width="450" fill="#72a4e1" y="-37.499999" height="449.999989" fill-opacity="1"/><rect x="-37.5" width="450" fill="#ffffff" y="-37.499999" height="449.999989" fill-opacity="1"/><rect x="-37.5" width="450" fill="#72a4e1" y="-37.499999" height="449.999989" fill-opacity="1"/><g fill="#ffffff" fill-opacity="1"><g transform="translate(102.776881, 166.316938)"><g><path d="M 8.25 -10.9375 C 8.0625 -10.675781 7.847656 -10.554688 7.609375 -10.578125 L -9.796875 -14.453125 L -9.84375 -14.375 L 0.421875 -6.890625 C 0.898438 -6.554688 1.28125 -6.320312 1.5625 -6.1875 C 1.84375 -6.0625 2.160156 -6.046875 2.515625 -6.140625 C 2.867188 -6.242188 3.234375 -6.546875 3.609375 -7.046875 L 3.71875 -7.203125 C 3.84375 -7.367188 3.960938 -7.46875 4.078125 -7.5 C 4.191406 -7.539062 4.378906 -7.476562 4.640625 -7.3125 C 4.796875 -7.195312 4.898438 -7.0625 4.953125 -6.90625 C 5.003906 -6.75 4.972656 -6.585938 4.859375 -6.421875 L 4.359375 -5.8125 C 3.742188 -5.050781 3.3125 -4.5 3.0625 -4.15625 C 2.625 -3.5625 2.019531 -2.6875 1.25 -1.53125 C 1.144531 -1.382812 1.003906 -1.3125 0.828125 -1.3125 C 0.660156 -1.3125 0.5 -1.367188 0.34375 -1.484375 C 0.101562 -1.703125 -0.0078125 -1.875 0 -2 C 0.0078125 -2.125 0.101562 -2.300781 0.28125 -2.53125 C 0.644531 -3.039062 0.820312 -3.472656 0.8125 -3.828125 C 0.800781 -4.191406 0.691406 -4.488281 0.484375 -4.71875 C 0.273438 -4.957031 -0.0546875 -5.253906 -0.515625 -5.609375 L -10.703125 -13.21875 C -11.222656 -13.601562 -11.660156 -13.832031 -12.015625 -13.90625 C -12.378906 -13.988281 -12.703125 -13.953125 -12.984375 -13.796875 C -13.265625 -13.648438 -13.617188 -13.382812 -14.046875 -13 C -14.097656 -12.945312 -14.1875 -12.859375 -14.3125 -12.734375 C -14.445312 -12.617188 -14.566406 -12.566406 -14.671875 -12.578125 C -14.785156 -12.597656 -14.925781 -12.671875 -15.09375 -12.796875 C -15.300781 -12.941406 -15.394531 -13.097656 -15.375 -13.265625 C -15.363281 -13.429688 -15.269531 -13.628906 -15.09375 -13.859375 C -14.351562 -14.878906 -13.675781 -15.664062 -13.0625 -16.21875 C -12.445312 -16.78125 -11.765625 -17.160156 -11.015625 -17.359375 C -10.265625 -17.566406 -9.378906 -17.539062 -8.359375 -17.28125 L 4.84375 -14.390625 L 4.90625 -14.46875 L -3.875 -28.78125 L -2.78125 -30.25 C -2.082031 -31.195312 -1.359375 -32.234375 -0.609375 -33.359375 C -0.492188 -33.515625 -0.351562 -33.59375 -0.1875 -33.59375 C -0.0195312 -33.59375 0.140625 -33.53125 0.296875 -33.40625 C 0.546875 -33.207031 0.660156 -33.039062 0.640625 -32.90625 C 0.617188 -32.769531 0.523438 -32.585938 0.359375 -32.359375 C -0.00390625 -31.867188 -0.179688 -31.4375 -0.171875 -31.0625 C -0.160156 -30.6875 -0.0507812 -30.367188 0.15625 -30.109375 C 0.375 -29.859375 0.691406 -29.566406 1.109375 -29.234375 L 11.34375 -21.6875 C 11.789062 -21.394531 12.164062 -21.179688 12.46875 -21.046875 C 12.78125 -20.910156 13.113281 -20.894531 13.46875 -21 C 13.820312 -21.113281 14.179688 -21.414062 14.546875 -21.90625 L 14.671875 -22.078125 C 14.785156 -22.222656 14.898438 -22.3125 15.015625 -22.34375 C 15.128906 -22.375 15.316406 -22.3125 15.578125 -22.15625 C 15.734375 -22.039062 15.835938 -21.898438 15.890625 -21.734375 C 15.941406 -21.578125 15.910156 -21.421875 15.796875 -21.265625 C 14.941406 -20.210938 14.15625 -19.203125 13.4375 -18.234375 C 12.707031 -17.234375 11.957031 -16.15625 11.1875 -15 C 11.070312 -14.851562 10.929688 -14.78125 10.765625 -14.78125 C 10.597656 -14.789062 10.4375 -14.851562 10.28125 -14.96875 C 10.03125 -15.175781 9.910156 -15.34375 9.921875 -15.46875 C 9.941406 -15.59375 10.035156 -15.773438 10.203125 -16.015625 C 10.578125 -16.515625 10.757812 -16.945312 10.75 -17.3125 C 10.75 -17.6875 10.640625 -18 10.421875 -18.25 C 10.203125 -18.507812 9.882812 -18.804688 9.46875 -19.140625 L -0.765625 -26.6875 L -0.828125 -26.609375 L 8.390625 -11.640625 C 8.492188 -11.441406 8.445312 -11.207031 8.25 -10.9375 Z M 8.25 -10.9375 "/></g></g></g><g fill="#ffffff" fill-opacity="1"><g transform="translate(120.486441, 143.418077)"><g><path d="M 1.5625 -1.125 C 1.414062 -1.019531 1.257812 -0.988281 1.09375 -1.03125 C 0.9375 -1.082031 0.796875 -1.179688 0.671875 -1.328125 C 0.492188 -1.597656 0.425781 -1.789062 0.46875 -1.90625 C 0.507812 -2.03125 0.644531 -2.1875 0.875 -2.375 C 1.363281 -2.757812 1.648438 -3.128906 1.734375 -3.484375 C 1.828125 -3.847656 1.800781 -4.179688 1.65625 -4.484375 C 1.507812 -4.785156 1.269531 -5.148438 0.9375 -5.578125 L -7.0625 -15.453125 C -7.40625 -15.847656 -7.707031 -16.148438 -7.96875 -16.359375 C -8.238281 -16.566406 -8.554688 -16.664062 -8.921875 -16.65625 C -9.296875 -16.644531 -9.726562 -16.445312 -10.21875 -16.0625 L -10.359375 -15.9375 C -10.535156 -15.800781 -10.679688 -15.734375 -10.796875 -15.734375 C -10.910156 -15.742188 -11.066406 -15.851562 -11.265625 -16.0625 C -11.390625 -16.21875 -11.457031 -16.378906 -11.46875 -16.546875 C -11.488281 -16.710938 -11.425781 -16.847656 -11.28125 -16.953125 C -10.15625 -17.796875 -9.148438 -18.570312 -8.265625 -19.28125 L -0.46875 -25.609375 C -0.03125 -25.960938 0.347656 -25.941406 0.671875 -25.546875 L 3.5625 -22.109375 C 3.675781 -21.972656 3.695312 -21.796875 3.625 -21.578125 C 3.5625 -21.367188 3.457031 -21.207031 3.3125 -21.09375 C 3.101562 -20.925781 2.890625 -20.816406 2.671875 -20.765625 C 2.460938 -20.722656 2.289062 -20.765625 2.15625 -20.890625 C 1.363281 -21.609375 0.71875 -22.113281 0.21875 -22.40625 C -0.28125 -22.707031 -0.765625 -22.832031 -1.234375 -22.78125 C -1.710938 -22.738281 -2.238281 -22.5 -2.8125 -22.0625 L -6.140625 -19.359375 L -1.03125 -13.046875 L 3.46875 -16.703125 C 3.601562 -16.773438 3.742188 -16.785156 3.890625 -16.734375 C 4.046875 -16.679688 4.1875 -16.578125 4.3125 -16.421875 C 4.414062 -16.296875 4.472656 -16.15625 4.484375 -16 C 4.503906 -15.851562 4.457031 -15.734375 4.34375 -15.640625 L -0.15625 -11.984375 L 3.65625 -7.28125 C 3.96875 -6.96875 4.234375 -6.726562 4.453125 -6.5625 C 4.671875 -6.394531 4.96875 -6.328125 5.34375 -6.359375 C 5.726562 -6.390625 6.175781 -6.628906 6.6875 -7.078125 L 8.984375 -8.9375 C 9.554688 -9.425781 9.914062 -9.878906 10.0625 -10.296875 C 10.21875 -10.710938 10.234375 -11.171875 10.109375 -11.671875 C 9.992188 -12.179688 9.726562 -12.945312 9.3125 -13.96875 C 9.1875 -14.351562 9.375 -14.695312 9.875 -15 C 10.0625 -15.101562 10.257812 -15.15625 10.46875 -15.15625 C 10.675781 -15.164062 10.828125 -15.085938 10.921875 -14.921875 L 12.96875 -11.375 C 13.101562 -11.125 13.144531 -10.925781 13.09375 -10.78125 C 13.039062 -10.632812 12.898438 -10.46875 12.671875 -10.28125 L 4.484375 -3.625 C 3.578125 -2.90625 2.601562 -2.070312 1.5625 -1.125 Z M 1.5625 -1.125 "/></g></g></g><g fill="#ffffff" fill-opacity="1"><g transform="translate(136.791557, 130.931653)"><g/></g></g><g fill="#ffffff" fill-opacity="1"><g transform="translate(144.263661, 126.279025)"><g><path d="M 8.109375 -2.5625 C 6.023438 -1.726562 4.285156 -1.453125 2.890625 -1.734375 C 1.503906 -2.015625 0.53125 -2.859375 -0.03125 -4.265625 C -0.3125 -4.972656 -0.300781 -5.65625 0 -6.3125 C 0.300781 -6.976562 0.835938 -7.46875 1.609375 -7.78125 C 2.066406 -7.945312 2.457031 -7.972656 2.78125 -7.859375 C 3.101562 -7.742188 3.300781 -7.59375 3.375 -7.40625 C 3.382812 -7.382812 3.3125 -7.273438 3.15625 -7.078125 C 3.007812 -6.890625 2.898438 -6.644531 2.828125 -6.34375 C 2.765625 -6.039062 2.816406 -5.6875 2.984375 -5.28125 C 3.359375 -4.34375 3.929688 -3.734375 4.703125 -3.453125 C 5.472656 -3.171875 6.453125 -3.269531 7.640625 -3.75 C 8.453125 -4.082031 9.101562 -4.523438 9.59375 -5.078125 C 10.082031 -5.640625 10.378906 -6.25 10.484375 -6.90625 C 10.597656 -7.570312 10.539062 -8.1875 10.3125 -8.75 C 10.019531 -9.46875 9.566406 -10.003906 8.953125 -10.359375 C 8.347656 -10.710938 7.675781 -10.941406 6.9375 -11.046875 C 6.207031 -11.148438 5.238281 -11.222656 4.03125 -11.265625 C 2.625 -11.328125 1.460938 -11.425781 0.546875 -11.5625 C -0.359375 -11.707031 -1.207031 -12.035156 -2 -12.546875 C -2.800781 -13.066406 -3.421875 -13.863281 -3.859375 -14.9375 C -4.546875 -16.65625 -4.472656 -18.175781 -3.640625 -19.5 C -2.804688 -20.820312 -1.429688 -21.867188 0.484375 -22.640625 C 1.992188 -23.242188 3.429688 -23.453125 4.796875 -23.265625 C 6.171875 -23.078125 7.109375 -22.375 7.609375 -21.15625 C 7.890625 -20.4375 7.878906 -19.75 7.578125 -19.09375 C 7.285156 -18.4375 6.753906 -17.953125 5.984375 -17.640625 C 5.523438 -17.484375 5.132812 -17.457031 4.8125 -17.5625 C 4.488281 -17.675781 4.289062 -17.820312 4.21875 -18 C 4.207031 -18.019531 4.3125 -18.140625 4.53125 -18.359375 C 4.75 -18.585938 4.914062 -18.863281 5.03125 -19.1875 C 5.144531 -19.507812 5.117188 -19.878906 4.953125 -20.296875 C 4.660156 -21.023438 4.148438 -21.484375 3.421875 -21.671875 C 2.691406 -21.867188 1.890625 -21.789062 1.015625 -21.4375 C -0.191406 -20.945312 -0.992188 -20.296875 -1.390625 -19.484375 C -1.796875 -18.671875 -1.832031 -17.851562 -1.5 -17.03125 C -1.21875 -16.332031 -0.789062 -15.828125 -0.21875 -15.515625 C 0.34375 -15.203125 1.125 -14.976562 2.125 -14.84375 C 2.945312 -14.769531 3.828125 -14.710938 4.765625 -14.671875 C 6.265625 -14.609375 7.484375 -14.488281 8.421875 -14.3125 C 9.359375 -14.132812 10.226562 -13.757812 11.03125 -13.1875 C 11.84375 -12.613281 12.476562 -11.757812 12.9375 -10.625 C 13.332031 -9.625 13.378906 -8.597656 13.078125 -7.546875 C 12.785156 -6.492188 12.195312 -5.523438 11.3125 -4.640625 C 10.4375 -3.765625 9.367188 -3.070312 8.109375 -2.5625 Z M 8.109375 -2.5625 "/></g></g></g><g fill="#ffffff" fill-opacity="1"><g transform="translate(161.219852, 119.247841)"><g><path d="M 11.453125 -1.203125 C 9.835938 -0.941406 8.40625 -1.003906 7.15625 -1.390625 C 5.90625 -1.773438 4.910156 -2.378906 4.171875 -3.203125 C 3.441406 -4.035156 2.988281 -4.984375 2.8125 -6.046875 L 1.078125 -16.828125 C 0.972656 -17.359375 0.851562 -17.78125 0.71875 -18.09375 C 0.59375 -18.40625 0.363281 -18.644531 0.03125 -18.8125 C -0.289062 -18.988281 -0.757812 -19.023438 -1.375 -18.921875 L -1.5625 -18.890625 C -1.769531 -18.859375 -1.925781 -18.875 -2.03125 -18.9375 C -2.132812 -19 -2.21875 -19.175781 -2.28125 -19.46875 C -2.3125 -19.664062 -2.285156 -19.835938 -2.203125 -19.984375 C -2.128906 -20.128906 -2 -20.21875 -1.8125 -20.25 C -0.457031 -20.40625 0.789062 -20.570312 1.9375 -20.75 C 3.21875 -20.957031 4.523438 -21.203125 5.859375 -21.484375 C 6.046875 -21.515625 6.195312 -21.472656 6.3125 -21.359375 C 6.4375 -21.242188 6.515625 -21.085938 6.546875 -20.890625 C 6.566406 -20.597656 6.535156 -20.40625 6.453125 -20.3125 C 6.367188 -20.21875 6.222656 -20.15625 6.015625 -20.125 C 5.335938 -20.007812 4.859375 -19.820312 4.578125 -19.5625 C 4.296875 -19.300781 4.140625 -19.007812 4.109375 -18.6875 C 4.085938 -18.363281 4.113281 -17.914062 4.1875 -17.34375 L 5.78125 -7.5 C 6.019531 -6.039062 6.5625 -4.867188 7.40625 -3.984375 C 8.25 -3.109375 9.660156 -2.832031 11.640625 -3.15625 C 13.578125 -3.46875 14.878906 -4.132812 15.546875 -5.15625 C 16.210938 -6.1875 16.4375 -7.375 16.21875 -8.71875 L 14.875 -17.03125 C 14.644531 -18.457031 14.429688 -19.457031 14.234375 -20.03125 C 14.035156 -20.613281 13.765625 -20.957031 13.421875 -21.0625 C 13.078125 -21.175781 12.515625 -21.171875 11.734375 -21.046875 L 11.546875 -21.015625 C 11.359375 -20.984375 11.207031 -21 11.09375 -21.0625 C 10.976562 -21.125 10.890625 -21.300781 10.828125 -21.59375 C 10.796875 -21.789062 10.816406 -21.960938 10.890625 -22.109375 C 10.972656 -22.253906 11.109375 -22.34375 11.296875 -22.375 C 12.671875 -22.53125 13.851562 -22.6875 14.84375 -22.84375 C 15.863281 -23.007812 17.039062 -23.234375 18.375 -23.515625 C 18.5625 -23.546875 18.710938 -23.503906 18.828125 -23.390625 C 18.953125 -23.273438 19.03125 -23.117188 19.0625 -22.921875 C 19.082031 -22.617188 19.050781 -22.421875 18.96875 -22.328125 C 18.882812 -22.234375 18.738281 -22.171875 18.53125 -22.140625 C 17.6875 -22.003906 17.109375 -21.835938 16.796875 -21.640625 C 16.492188 -21.453125 16.332031 -21.066406 16.3125 -20.484375 C 16.289062 -19.898438 16.390625 -18.90625 16.609375 -17.5 L 18.046875 -8.6875 C 18.273438 -7.269531 18.070312 -6.03125 17.4375 -4.96875 C 16.8125 -3.90625 15.953125 -3.0625 14.859375 -2.4375 C 13.765625 -1.8125 12.628906 -1.398438 11.453125 -1.203125 Z M 11.453125 -1.203125 "/></g></g></g><g fill="#ffffff" fill-opacity="1"><g transform="translate(184.772357, 115.742339)"><g><path d="M 1.921875 0.234375 C 1.742188 0.210938 1.601562 0.132812 1.5 0 C 1.40625 -0.144531 1.367188 -0.316406 1.390625 -0.515625 C 1.429688 -0.835938 1.515625 -1.023438 1.640625 -1.078125 C 1.765625 -1.128906 1.972656 -1.144531 2.265625 -1.125 C 2.890625 -1.082031 3.351562 -1.160156 3.65625 -1.359375 C 3.96875 -1.566406 4.171875 -1.832031 4.265625 -2.15625 C 4.359375 -2.476562 4.4375 -2.90625 4.5 -3.4375 L 5.375 -16.109375 C 5.394531 -16.640625 5.378906 -17.070312 5.328125 -17.40625 C 5.273438 -17.738281 5.109375 -18.023438 4.828125 -18.265625 C 4.554688 -18.515625 4.109375 -18.660156 3.484375 -18.703125 L 3.296875 -18.71875 C 3.078125 -18.738281 2.921875 -18.789062 2.828125 -18.875 C 2.742188 -18.957031 2.703125 -19.144531 2.703125 -19.4375 C 2.710938 -19.632812 2.773438 -19.796875 2.890625 -19.921875 C 3.003906 -20.054688 3.148438 -20.113281 3.328125 -20.09375 C 4.703125 -19.9375 5.976562 -19.816406 7.15625 -19.734375 L 11.9375 -19.40625 C 13.789062 -19.28125 15.554688 -18.769531 17.234375 -17.875 C 18.921875 -16.988281 19.679688 -15.398438 19.515625 -13.109375 C 19.429688 -11.828125 18.96875 -10.710938 18.125 -9.765625 C 17.28125 -8.828125 16.226562 -8.125 14.96875 -7.65625 C 13.71875 -7.1875 12.429688 -7 11.109375 -7.09375 C 9.898438 -7.175781 8.847656 -7.421875 7.953125 -7.828125 L 7.640625 -3.21875 C 7.617188 -2.6875 7.632812 -2.253906 7.6875 -1.921875 C 7.738281 -1.585938 7.90625 -1.296875 8.1875 -1.046875 C 8.476562 -0.804688 8.929688 -0.664062 9.546875 -0.625 L 9.734375 -0.609375 C 9.941406 -0.597656 10.085938 -0.550781 10.171875 -0.46875 C 10.265625 -0.382812 10.3125 -0.191406 10.3125 0.109375 C 10.289062 0.304688 10.226562 0.46875 10.125 0.59375 C 10.03125 0.726562 9.890625 0.785156 9.703125 0.765625 C 8.347656 0.609375 7.019531 0.488281 5.71875 0.40625 C 4.5625 0.320312 3.296875 0.265625 1.921875 0.234375 Z M 10.28125 -8.59375 C 11.039062 -8.539062 11.84375 -8.632812 12.6875 -8.875 C 13.53125 -9.125 14.269531 -9.609375 14.90625 -10.328125 C 15.539062 -11.046875 15.898438 -12.023438 15.984375 -13.265625 C 16.109375 -15.128906 15.59375 -16.410156 14.4375 -17.109375 C 13.289062 -17.816406 12.050781 -18.21875 10.71875 -18.3125 C 10.164062 -18.351562 9.742188 -18.320312 9.453125 -18.21875 C 9.171875 -18.125 8.957031 -17.90625 8.8125 -17.5625 C 8.664062 -17.226562 8.570312 -16.703125 8.53125 -15.984375 L 8.046875 -9.09375 C 8.535156 -8.832031 9.28125 -8.664062 10.28125 -8.59375 Z M 10.28125 -8.59375 "/></g></g></g><g fill="#ffffff" fill-opacity="1"><g transform="translate(205.00771, 117.256681)"><g><path d="M 1.8125 0.625 C 1.644531 0.582031 1.53125 0.476562 1.46875 0.3125 C 1.414062 0.15625 1.414062 -0.015625 1.46875 -0.203125 C 1.570312 -0.503906 1.691406 -0.671875 1.828125 -0.703125 C 1.960938 -0.734375 2.171875 -0.707031 2.453125 -0.625 C 3.046875 -0.457031 3.515625 -0.4375 3.859375 -0.5625 C 4.210938 -0.695312 4.46875 -0.910156 4.625 -1.203125 C 4.78125 -1.503906 4.945312 -1.910156 5.125 -2.421875 L 8.65625 -14.609375 C 8.78125 -15.128906 8.851562 -15.554688 8.875 -15.890625 C 8.90625 -16.234375 8.804688 -16.550781 8.578125 -16.84375 C 8.359375 -17.144531 7.953125 -17.378906 7.359375 -17.546875 L 7.171875 -17.609375 C 6.960938 -17.660156 6.820312 -17.738281 6.75 -17.84375 C 6.6875 -17.945312 6.6875 -18.140625 6.75 -18.421875 C 6.800781 -18.617188 6.894531 -18.765625 7.03125 -18.859375 C 7.164062 -18.960938 7.316406 -18.992188 7.484375 -18.953125 C 8.804688 -18.503906 10.03125 -18.113281 11.15625 -17.78125 L 15.765625 -16.453125 C 17.546875 -15.929688 19.164062 -15.0625 20.625 -13.84375 C 22.082031 -12.625 22.488281 -10.90625 21.84375 -8.6875 C 21.488281 -7.457031 20.800781 -6.46875 19.78125 -5.71875 C 18.757812 -4.96875 17.582031 -4.5 16.25 -4.3125 C 14.925781 -4.125 13.628906 -4.210938 12.359375 -4.578125 C 11.191406 -4.921875 10.210938 -5.382812 9.421875 -5.96875 L 8.140625 -1.546875 C 8.003906 -1.023438 7.925781 -0.59375 7.90625 -0.25 C 7.894531 0.0820312 8 0.394531 8.21875 0.6875 C 8.445312 0.988281 8.859375 1.226562 9.453125 1.40625 L 9.640625 1.453125 C 9.847656 1.515625 9.984375 1.59375 10.046875 1.6875 C 10.117188 1.789062 10.125 1.992188 10.0625 2.296875 C 10.007812 2.484375 9.914062 2.628906 9.78125 2.734375 C 9.65625 2.835938 9.5 2.859375 9.3125 2.796875 C 8.03125 2.359375 6.757812 1.957031 5.5 1.59375 C 4.394531 1.269531 3.164062 0.945312 1.8125 0.625 Z M 11.859375 -6.21875 C 12.597656 -6 13.40625 -5.921875 14.28125 -5.984375 C 15.15625 -6.054688 15.972656 -6.375 16.734375 -6.9375 C 17.503906 -7.507812 18.066406 -8.394531 18.421875 -9.59375 C 18.941406 -11.394531 18.710938 -12.757812 17.734375 -13.6875 C 16.753906 -14.613281 15.617188 -15.265625 14.328125 -15.640625 C 13.796875 -15.796875 13.378906 -15.851562 13.078125 -15.8125 C 12.773438 -15.78125 12.519531 -15.613281 12.3125 -15.3125 C 12.101562 -15.007812 11.898438 -14.515625 11.703125 -13.828125 L 9.78125 -7.1875 C 10.195312 -6.820312 10.890625 -6.5 11.859375 -6.21875 Z M 11.859375 -6.21875 "/></g></g></g><g fill="#ffffff" fill-opacity="1"><g transform="translate(224.383626, 122.716873)"><g><path d="M 9.890625 6.328125 C 8.117188 5.328125 6.796875 4.023438 5.921875 2.421875 C 5.054688 0.816406 4.648438 -0.890625 4.703125 -2.703125 C 4.765625 -4.515625 5.25 -6.222656 6.15625 -7.828125 C 7.25 -9.773438 8.644531 -11.21875 10.34375 -12.15625 C 12.039062 -13.101562 13.796875 -13.570312 15.609375 -13.5625 C 17.421875 -13.5625 19.035156 -13.160156 20.453125 -12.359375 C 22.222656 -11.347656 23.550781 -10.035156 24.4375 -8.421875 C 25.332031 -6.804688 25.753906 -5.101562 25.703125 -3.3125 C 25.660156 -1.519531 25.191406 0.171875 24.296875 1.765625 C 23.191406 3.710938 21.773438 5.164062 20.046875 6.125 C 18.328125 7.09375 16.554688 7.566406 14.734375 7.546875 C 12.910156 7.523438 11.296875 7.117188 9.890625 6.328125 Z M 10.546875 5.078125 C 11.804688 5.796875 13.070312 6.015625 14.34375 5.734375 C 15.613281 5.460938 16.816406 4.804688 17.953125 3.765625 C 19.085938 2.722656 20.09375 1.429688 20.96875 -0.109375 C 21.769531 -1.523438 22.296875 -2.953125 22.546875 -4.390625 C 22.796875 -5.828125 22.695312 -7.144531 22.25 -8.34375 C 21.8125 -9.539062 20.976562 -10.488281 19.75 -11.1875 C 17.894531 -12.238281 16.050781 -12.242188 14.21875 -11.203125 C 12.382812 -10.171875 10.796875 -8.457031 9.453125 -6.0625 C 8.628906 -4.601562 8.085938 -3.148438 7.828125 -1.703125 C 7.566406 -0.265625 7.644531 1.046875 8.0625 2.234375 C 8.488281 3.429688 9.316406 4.378906 10.546875 5.078125 Z M 10.546875 5.078125 "/></g></g></g><g fill="#ffffff" fill-opacity="1"><g transform="translate(245.332976, 134.79924)"><g><path d="M 1.359375 1.40625 C 1.210938 1.269531 1.148438 1.117188 1.171875 0.953125 C 1.203125 0.785156 1.285156 0.632812 1.421875 0.5 C 1.648438 0.28125 1.828125 0.179688 1.953125 0.203125 C 2.078125 0.234375 2.242188 0.347656 2.453125 0.546875 C 2.910156 0.984375 3.320312 1.222656 3.6875 1.265625 C 4.0625 1.304688 4.382812 1.226562 4.65625 1.03125 C 4.9375 0.84375 5.273438 0.566406 5.671875 0.203125 L 14.375 -9.015625 C 14.726562 -9.429688 14.988281 -9.78125 15.15625 -10.0625 C 15.320312 -10.34375 15.378906 -10.664062 15.328125 -11.03125 C 15.273438 -11.40625 15.019531 -11.8125 14.5625 -12.25 L 14.421875 -12.375 C 14.265625 -12.519531 14.179688 -12.648438 14.171875 -12.765625 C 14.160156 -12.878906 14.253906 -13.054688 14.453125 -13.296875 C 14.585938 -13.441406 14.734375 -13.523438 14.890625 -13.546875 C 15.046875 -13.578125 15.195312 -13.523438 15.34375 -13.390625 C 16.3125 -12.398438 17.210938 -11.507812 18.046875 -10.71875 L 22.046875 -6.9375 C 23.234375 -5.789062 24.050781 -4.65625 24.5 -3.53125 C 24.957031 -2.414062 25.101562 -1.398438 24.9375 -0.484375 C 24.769531 0.429688 24.378906 1.21875 23.765625 1.875 C 22.960938 2.71875 21.882812 3.175781 20.53125 3.25 C 19.1875 3.332031 17.785156 2.976562 16.328125 2.1875 L 16.140625 3.1875 C 15.796875 4.851562 15.53125 6.3125 15.34375 7.5625 C 15.15625 8.8125 15.066406 10.054688 15.078125 11.296875 C 15.171875 12.066406 15.4375 12.710938 15.875 13.234375 C 15.90625 13.265625 15.972656 13.335938 16.078125 13.453125 C 16.179688 13.566406 16.226562 13.691406 16.21875 13.828125 C 16.21875 13.972656 16.144531 14.125 16 14.28125 C 15.863281 14.414062 15.710938 14.5 15.546875 14.53125 C 15.390625 14.570312 15.238281 14.523438 15.09375 14.390625 L 14.515625 13.796875 C 13.859375 13.128906 13.378906 12.648438 13.078125 12.359375 C 12.566406 11.640625 12.238281 10.910156 12.09375 10.171875 C 11.957031 9.441406 11.953125 8.582031 12.078125 7.59375 C 12.191406 6.570312 12.472656 5.015625 12.921875 2.921875 L 13.140625 1.828125 C 13.242188 1.265625 13.25 0.816406 13.15625 0.484375 C 13.0625 0.148438 12.753906 -0.265625 12.234375 -0.765625 L 11.546875 -1.40625 L 7.96875 2.375 C 7.613281 2.78125 7.351562 3.128906 7.1875 3.421875 C 7.019531 3.710938 6.960938 4.039062 7.015625 4.40625 C 7.078125 4.769531 7.332031 5.164062 7.78125 5.59375 L 7.921875 5.734375 C 8.054688 5.859375 8.132812 5.976562 8.15625 6.09375 C 8.1875 6.21875 8.101562 6.398438 7.90625 6.640625 C 7.769531 6.773438 7.617188 6.859375 7.453125 6.890625 C 7.296875 6.921875 7.148438 6.875 7.015625 6.75 C 6.066406 5.769531 5.117188 4.832031 4.171875 3.9375 C 3.347656 3.15625 2.410156 2.3125 1.359375 1.40625 Z M 14.4375 -0.390625 C 16.75 1.796875 18.9375 1.804688 21 -0.359375 C 21.832031 -1.242188 22.234375 -2.273438 22.203125 -3.453125 C 22.171875 -4.640625 21.460938 -5.890625 20.078125 -7.203125 C 19.628906 -7.617188 19.238281 -7.878906 18.90625 -7.984375 C 18.570312 -8.085938 18.234375 -8.050781 17.890625 -7.875 C 17.554688 -7.695312 17.132812 -7.335938 16.625 -6.796875 L 12.390625 -2.328125 Z M 14.4375 -0.390625 "/></g></g></g><g fill="#ffffff" fill-opacity="1"><g transform="translate(261.409425, 150.297882)"><g><path d="M 3.125 4.8125 C 3.007812 4.644531 2.984375 4.484375 3.046875 4.328125 C 3.109375 4.179688 3.21875 4.050781 3.375 3.9375 C 3.65625 3.78125 3.847656 3.722656 3.953125 3.765625 C 4.066406 3.816406 4.207031 3.96875 4.375 4.21875 C 4.71875 4.726562 5.066406 5.046875 5.421875 5.171875 C 5.785156 5.296875 6.125 5.296875 6.4375 5.171875 C 6.75 5.054688 7.132812 4.859375 7.59375 4.578125 L 20.265625 -3.9375 L 19.03125 -5.765625 C 18.601562 -6.347656 18.160156 -6.722656 17.703125 -6.890625 C 17.242188 -7.066406 16.722656 -7.082031 16.140625 -6.9375 C 15.554688 -6.789062 14.789062 -6.488281 13.84375 -6.03125 C 13.6875 -5.945312 13.5 -5.972656 13.28125 -6.109375 C 13.0625 -6.242188 12.878906 -6.414062 12.734375 -6.625 C 12.628906 -6.78125 12.582031 -6.957031 12.59375 -7.15625 C 12.601562 -7.363281 12.6875 -7.519531 12.84375 -7.625 L 16.640625 -10.0625 C 17.054688 -10.351562 17.425781 -10.257812 17.75 -9.78125 L 26.46875 3.203125 C 26.78125 3.660156 26.726562 4.035156 26.3125 4.328125 L 22.640625 6.96875 C 22.484375 7.070312 22.304688 7.082031 22.109375 7 C 21.921875 6.925781 21.769531 6.8125 21.65625 6.65625 C 21.519531 6.445312 21.429688 6.21875 21.390625 5.96875 C 21.359375 5.71875 21.40625 5.535156 21.53125 5.421875 C 22.320312 4.679688 22.894531 4.078125 23.25 3.609375 C 23.601562 3.148438 23.785156 2.671875 23.796875 2.171875 C 23.804688 1.679688 23.617188 1.125 23.234375 0.5 L 22.03125 -1.3125 L 9.359375 7.203125 C 8.921875 7.523438 8.585938 7.804688 8.359375 8.046875 C 8.128906 8.285156 8.003906 8.59375 7.984375 8.96875 C 7.960938 9.351562 8.125 9.800781 8.46875 10.3125 L 8.578125 10.46875 C 8.679688 10.625 8.726562 10.757812 8.71875 10.875 C 8.707031 11 8.582031 11.15625 8.34375 11.34375 C 8.1875 11.457031 8.023438 11.507812 7.859375 11.5 C 7.691406 11.5 7.554688 11.414062 7.453125 11.25 C 6.742188 10.082031 6.066406 9.023438 5.421875 8.078125 C 4.710938 7.015625 3.945312 5.925781 3.125 4.8125 Z M 3.125 4.8125 "/></g></g></g><g clip-path="url(#id1)"><path fill="#ffffff" d="M 244.707031 165.386719 C 244.472656 165.199219 244.238281 165.152344 243.953125 165.199219 L 234.21875 167.277344 L 233.746094 164.820312 C 233.699219 164.582031 233.558594 164.394531 233.324219 164.253906 C 233.136719 164.109375 232.855469 164.0625 232.617188 164.15625 L 223.351562 166.992188 C 222.976562 167.085938 222.742188 167.464844 222.742188 167.84375 L 222.742188 172.570312 L 210.417969 182.679688 L 202.421875 172.992188 L 207.734375 169.78125 C 208.019531 169.59375 208.207031 169.261719 208.160156 168.929688 L 207.546875 160.945312 L 214.273438 158.675781 C 214.746094 158.488281 214.980469 158.015625 214.839844 157.542969 L 210.933594 145.777344 C 210.886719 145.542969 210.699219 145.351562 210.511719 145.257812 C 210.324219 145.164062 210.085938 145.117188 209.851562 145.210938 L 206.371094 146.390625 L 206.183594 143.933594 C 206.183594 143.605469 205.949219 143.320312 205.621094 143.179688 L 188.6875 136.894531 C 188.496094 136.800781 188.261719 136.800781 188.074219 136.894531 L 171.140625 143.179688 C 170.8125 143.273438 170.625 143.605469 170.578125 143.933594 L 170.390625 146.535156 L 166.625 145.257812 C 166.4375 145.164062 166.15625 145.210938 165.96875 145.304688 C 165.777344 145.398438 165.636719 145.589844 165.542969 145.824219 L 161.265625 158.582031 C 161.121094 159.054688 161.359375 159.574219 161.828125 159.714844 L 169.117188 162.171875 L 168.601562 168.882812 C 168.554688 169.261719 168.742188 169.542969 169.023438 169.734375 L 174.058594 172.804688 L 164.414062 184.523438 L 152.089844 174.410156 L 152.089844 169.6875 C 152.089844 169.308594 151.855469 168.929688 151.480469 168.835938 L 142.214844 166 C 141.980469 165.953125 141.742188 165.953125 141.507812 166.09375 C 141.273438 166.191406 141.132812 166.425781 141.085938 166.664062 L 140.613281 169.121094 L 130.878906 167.039062 C 130.597656 166.992188 130.3125 167.039062 130.125 167.230469 C 129.9375 167.417969 129.796875 167.65625 129.796875 167.9375 L 129.796875 171.625 C 129.796875 171.953125 129.984375 172.285156 130.3125 172.425781 L 148.65625 181.121094 L 160.085938 201.4375 C 160.230469 201.675781 160.417969 201.816406 160.652344 201.863281 C 160.886719 201.910156 161.167969 201.863281 161.359375 201.722656 L 172.457031 194.304688 L 171.941406 199.21875 L 171.09375 206.636719 L 167.238281 205.078125 C 166.957031 204.933594 166.578125 204.980469 166.34375 205.21875 L 159.195312 211.359375 C 158.910156 211.597656 158.816406 211.976562 158.910156 212.304688 L 162.0625 222.84375 C 162.15625 223.171875 162.441406 223.410156 162.769531 223.457031 L 175.796875 225.394531 L 177.914062 230.734375 C 178.007812 231.0625 178.339844 231.300781 178.714844 231.300781 C 178.714844 231.300781 178.761719 231.300781 178.761719 231.253906 L 185.910156 230.589844 C 186.238281 230.589844 186.570312 230.355469 186.664062 230.023438 L 187.605469 227.378906 L 188.402344 227.238281 L 189.203125 227.332031 L 190.144531 230.023438 C 190.285156 230.308594 190.566406 230.542969 190.898438 230.589844 L 198.046875 231.253906 C 198.09375 231.253906 198.09375 231.253906 198.140625 231.253906 C 198.46875 231.253906 198.800781 231.015625 198.941406 230.734375 L 201.007812 225.347656 L 214.039062 223.410156 C 214.367188 223.363281 214.648438 223.125 214.746094 222.796875 L 217.894531 212.257812 C 217.988281 211.929688 217.894531 211.550781 217.613281 211.3125 L 210.464844 205.171875 C 210.230469 204.980469 209.851562 204.886719 209.570312 205.03125 L 205.570312 206.636719 L 204.773438 199.453125 C 204.773438 199.359375 204.773438 199.3125 204.773438 199.21875 L 204.207031 193.59375 L 213.425781 199.785156 C 213.664062 199.925781 213.898438 199.972656 214.132812 199.925781 C 214.367188 199.878906 214.554688 199.738281 214.699219 199.5 L 226.082031 179.230469 L 244.472656 170.488281 C 244.800781 170.347656 244.988281 170.015625 244.988281 169.6875 L 244.988281 166 C 245.035156 165.8125 244.894531 165.574219 244.707031 165.386719 Z M 243.34375 169.214844 L 227.539062 176.726562 L 226.269531 177.339844 L 225.984375 177.484375 L 224.527344 174.316406 L 224.527344 168.503906 L 232.242188 166.144531 L 232.570312 167.703125 L 228.007812 169.214844 C 227.632812 169.355469 227.398438 169.6875 227.398438 170.0625 L 227.398438 171.8125 C 227.398438 172.332031 227.820312 172.710938 228.289062 172.710938 C 228.761719 172.710938 229.136719 172.332031 229.183594 171.8125 L 229.183594 170.726562 L 230.832031 170.207031 L 233.746094 169.214844 L 243.34375 167.183594 Z M 209.757812 206.964844 L 216.0625 212.351562 L 213.238281 221.804688 L 201.808594 223.503906 L 200.820312 223.644531 L 199.878906 223.789062 L 193.90625 224.683594 L 192.917969 224.828125 L 191.980469 224.96875 L 190.378906 225.207031 L 189.53125 225.347656 L 188.640625 225.488281 L 188.402344 225.535156 L 188.449219 225.394531 C 188.546875 225.207031 188.546875 224.96875 188.449219 224.78125 L 186.191406 219.015625 L 185.816406 218.023438 C 185.816406 217.976562 185.769531 217.882812 185.722656 217.835938 L 185.160156 217.03125 L 185.0625 216.890625 L 188.496094 215.519531 L 189.769531 215 L 190.945312 214.527344 L 204.300781 209.1875 L 205.148438 208.855469 L 205.949219 208.527344 Z M 191.695312 228.984375 L 191.226562 227.710938 L 190.945312 226.90625 L 191.507812 226.8125 L 192.261719 226.71875 L 193.25 226.574219 L 199.082031 225.726562 L 197.574219 229.550781 Z M 185.722656 227.710938 L 185.253906 228.984375 L 179.324219 229.550781 L 177.820312 225.726562 L 177.445312 224.734375 L 177.066406 223.835938 L 176.738281 223.03125 L 177.679688 222.039062 C 177.726562 221.992188 177.773438 221.992188 177.820312 221.945312 L 181.113281 218.921875 L 181.773438 218.308594 L 181.820312 218.257812 L 182.148438 217.976562 C 182.289062 217.835938 182.382812 217.691406 182.382812 217.503906 C 182.429688 217.3125 182.382812 217.171875 182.335938 216.984375 C 182.289062 216.890625 182.242188 216.792969 182.148438 216.699219 C 182.054688 216.605469 182.007812 216.558594 181.914062 216.511719 C 181.773438 216.417969 181.582031 216.417969 181.394531 216.417969 C 181.394531 216.417969 181.394531 216.417969 181.347656 216.417969 C 181.207031 216.464844 181.019531 216.511719 180.878906 216.652344 L 180.3125 217.171875 L 179.46875 217.929688 L 178.574219 218.730469 L 178.761719 217.785156 L 178.949219 216.890625 L 179.136719 216.039062 L 179.136719 215.945312 L 181.960938 215.945312 L 182.054688 216.085938 L 182.429688 216.558594 L 182.617188 216.792969 L 183.136719 217.550781 L 183.183594 217.597656 L 183.933594 218.636719 L 183.980469 218.730469 L 186.476562 225.109375 L 186.429688 225.207031 L 186.238281 225.726562 L 186.144531 226.007812 L 185.910156 226.667969 L 185.863281 226.859375 Z M 163.664062 221.851562 L 160.839844 212.351562 L 167.144531 207.015625 L 170.90625 208.527344 L 171.753906 208.855469 L 172.597656 209.1875 L 185.957031 214.574219 L 183.792969 215.425781 L 183.183594 214.574219 C 183.042969 214.335938 182.757812 214.195312 182.476562 214.195312 L 178.480469 214.195312 C 178.101562 214.195312 177.726562 214.480469 177.632812 214.90625 L 177.445312 215.753906 L 177.257812 216.605469 L 177.066406 217.503906 L 176.363281 220.859375 L 175.046875 222.179688 C 174.808594 222.417969 174.714844 222.796875 174.855469 223.125 L 175.046875 223.550781 Z M 203.691406 188.066406 C 203.644531 187.546875 203.171875 187.214844 202.703125 187.261719 C 202.1875 187.3125 201.855469 187.78125 201.902344 188.253906 L 202.234375 191.703125 C 202.234375 191.800781 202.1875 191.894531 202.234375 191.988281 L 202.703125 196.242188 L 203.03125 199.5 C 203.03125 199.59375 203.078125 199.691406 203.078125 199.738281 L 203.925781 207.390625 L 188.449219 213.628906 L 172.882812 207.390625 L 173.726562 199.691406 C 173.726562 199.644531 173.726562 199.644531 173.726562 199.59375 L 173.824219 198.460938 L 174.480469 192.601562 C 174.480469 192.507812 174.480469 192.414062 174.433594 192.320312 L 174.855469 188.304688 C 174.90625 187.78125 174.527344 187.359375 174.058594 187.3125 C 173.539062 187.261719 173.117188 187.640625 173.070312 188.113281 L 172.695312 192.035156 L 161.167969 199.738281 L 150.304688 180.363281 L 151.996094 176.726562 C 151.996094 176.679688 152.042969 176.679688 152.042969 176.632812 L 164.085938 186.460938 C 164.460938 186.742188 164.980469 186.695312 165.308594 186.320312 L 175.609375 173.75 L 187.933594 181.214844 C 188.074219 181.308594 188.261719 181.355469 188.402344 181.355469 C 188.546875 181.355469 188.6875 181.355469 188.828125 181.261719 L 200.914062 173.9375 L 209.617188 184.476562 C 209.898438 184.855469 210.464844 184.949219 210.839844 184.617188 L 222.789062 174.835938 C 222.789062 174.835938 222.789062 174.882812 222.835938 174.882812 L 224.527344 178.570312 L 213.710938 197.894531 L 204.019531 191.421875 Z M 147.292969 178.523438 L 131.582031 171.058594 L 131.582031 169.023438 L 141.039062 171.007812 L 144.09375 172 L 145.695312 172.519531 L 145.695312 173.609375 C 145.695312 174.128906 146.117188 174.507812 146.589844 174.507812 C 147.105469 174.507812 147.480469 174.128906 147.480469 173.609375 L 147.480469 171.859375 C 147.480469 171.480469 147.246094 171.152344 146.871094 171.007812 L 142.355469 169.542969 L 142.683594 167.9375 L 150.398438 170.300781 L 150.398438 176.066406 L 149.363281 178.425781 L 149.269531 178.570312 L 148.941406 179.324219 L 148.609375 179.183594 Z M 169.214844 160.378906 L 163.238281 158.347656 L 166.90625 147.242188 L 170.246094 148.375 L 170.152344 149.367188 L 168.695312 148.894531 C 168.507812 148.800781 168.226562 148.847656 168.035156 148.945312 C 167.847656 149.039062 167.707031 149.226562 167.613281 149.464844 L 165.921875 154.519531 C 165.828125 154.707031 165.875 154.992188 165.96875 155.179688 C 166.0625 155.371094 166.25 155.511719 166.484375 155.605469 L 169.589844 156.644531 L 169.308594 160.140625 Z M 169.730469 154.800781 L 167.894531 154.1875 L 169.023438 150.832031 L 170.011719 151.164062 Z M 171.046875 160.378906 L 171.328125 157.164062 L 171.375 156.835938 L 171.421875 156.265625 L 171.519531 155.371094 L 171.707031 153.148438 L 171.800781 151.730469 L 171.894531 150.785156 L 171.988281 149.886719 L 172.082031 148.894531 L 172.175781 147.953125 L 172.269531 147.054688 L 172.457031 144.597656 L 188.546875 138.644531 L 204.632812 144.597656 L 204.820312 146.910156 L 204.914062 147.902344 L 204.960938 148.753906 L 205.054688 149.746094 L 205.242188 151.542969 L 205.476562 154.332031 L 205.523438 155.179688 L 205.621094 156.125 L 205.667969 157.023438 L 205.761719 157.96875 L 205.996094 161.085938 L 206.558594 168.457031 L 201.902344 171.292969 L 201.058594 171.8125 L 200.257812 172.285156 L 188.546875 179.371094 L 176.878906 172.285156 L 175.890625 171.859375 L 175 171.339844 L 170.390625 168.503906 Z M 209.523438 147.242188 L 212.863281 157.257812 L 207.40625 159.101562 L 207.21875 156.457031 L 209.945312 155.511719 C 210.183594 155.464844 210.371094 155.273438 210.464844 155.085938 C 210.558594 154.898438 210.605469 154.660156 210.511719 154.425781 L 208.816406 149.367188 C 208.769531 149.132812 208.582031 148.945312 208.394531 148.847656 C 208.207031 148.753906 207.972656 148.707031 207.734375 148.800781 L 206.652344 149.179688 L 206.558594 148.1875 Z M 206.75 151.023438 L 207.40625 150.785156 L 208.535156 154.140625 L 207.03125 154.660156 Z M 206.75 151.023438 " fill-opacity="1" fill-rule="nonzero"/></g><path fill="#ffffff" d="M 179.417969 163.308594 L 179.042969 167.039062 L 178.949219 167.9375 L 178.855469 168.789062 L 178.480469 172.191406 C 178.433594 172.570312 178.621094 172.898438 178.949219 173.089844 L 187.980469 178.003906 C 188.121094 178.050781 188.261719 178.097656 188.402344 178.097656 C 188.546875 178.097656 188.6875 178.050781 188.78125 178.050781 L 197.8125 173.136719 C 198.140625 172.945312 198.328125 172.617188 198.28125 172.238281 L 197.90625 168.789062 L 197.8125 167.9375 L 197.71875 167.039062 L 197.339844 163.308594 L 201.574219 158.0625 L 202.28125 157.210938 L 203.363281 155.890625 L 203.550781 155.699219 C 203.691406 155.558594 203.738281 155.371094 203.738281 155.226562 C 203.738281 154.992188 203.691406 154.753906 203.550781 154.566406 L 203.503906 154.519531 L 201.949219 152.628906 L 201.339844 151.921875 L 200.726562 151.210938 L 196.257812 145.777344 C 196.023438 145.496094 195.648438 145.398438 195.316406 145.496094 L 188.402344 147.574219 L 181.488281 145.496094 C 181.160156 145.398438 180.785156 145.496094 180.546875 145.777344 L 175.984375 151.304688 L 175.421875 152.015625 L 174.808594 152.769531 L 173.351562 154.566406 C 173.070312 154.898438 173.070312 155.371094 173.351562 155.699219 L 173.726562 156.171875 L 174.574219 157.210938 L 175.140625 157.921875 Z M 175.09375 155.132812 L 175.28125 154.945312 L 176.738281 153.195312 L 181.535156 147.335938 L 188.121094 149.320312 C 188.308594 149.367188 188.449219 149.367188 188.640625 149.320312 L 195.269531 147.335938 L 199.410156 152.34375 L 201.007812 154.28125 L 201.667969 155.085938 L 201.386719 155.417969 L 200.726562 156.265625 L 195.742188 162.457031 C 195.601562 162.644531 195.507812 162.882812 195.554688 163.117188 L 195.976562 167.039062 L 196.070312 167.9375 L 196.164062 168.789062 L 196.496094 171.8125 L 188.402344 176.207031 L 180.3125 171.8125 L 180.644531 168.789062 L 180.738281 167.9375 L 180.832031 167.039062 L 181.253906 163.164062 C 181.300781 162.929688 181.207031 162.695312 181.066406 162.503906 L 175.75 155.984375 L 175.140625 155.226562 Z M 175.09375 155.132812 " fill-opacity="1" fill-rule="nonzero"/><path fill="#ffffff" d="M 185.394531 171.953125 L 188.074219 172.804688 C 188.167969 172.851562 188.261719 172.851562 188.355469 172.851562 C 188.449219 172.851562 188.496094 172.804688 188.59375 172.804688 C 188.59375 172.804688 188.640625 172.804688 188.640625 172.804688 L 191.320312 171.953125 C 191.789062 171.765625 192.027344 171.292969 191.882812 170.820312 C 191.695312 170.347656 191.226562 170.113281 190.753906 170.253906 L 189.25 170.726562 L 189.25 162.929688 L 190.707031 161.464844 C 191.039062 161.085938 191.039062 160.519531 190.707031 160.1875 L 189.015625 158.488281 C 188.640625 158.15625 188.074219 158.15625 187.746094 158.488281 L 186.050781 160.1875 C 185.722656 160.566406 185.722656 161.132812 186.050781 161.464844 L 187.464844 162.882812 L 187.464844 170.726562 L 185.957031 170.253906 C 185.488281 170.113281 184.96875 170.347656 184.828125 170.820312 C 184.6875 171.292969 184.921875 171.8125 185.394531 171.953125 Z M 188.828125 160.851562 L 188.355469 161.324219 L 187.980469 160.945312 L 187.886719 160.851562 L 188.355469 160.378906 Z M 188.828125 160.851562 " fill-opacity="1" fill-rule="nonzero"/><path fill="#ffffff" d="M 180.644531 156.171875 C 180.785156 156.171875 180.925781 156.125 181.066406 156.03125 L 184.171875 154.332031 C 184.59375 154.140625 184.734375 153.574219 184.5 153.148438 C 184.265625 152.722656 183.746094 152.582031 183.324219 152.816406 L 180.21875 154.519531 C 179.796875 154.707031 179.65625 155.273438 179.890625 155.699219 C 180.03125 155.984375 180.3125 156.171875 180.644531 156.171875 Z M 180.644531 156.171875 " fill-opacity="1" fill-rule="nonzero"/><path fill="#ffffff" d="M 192.730469 154.566406 L 195.882812 156.171875 C 196.023438 156.21875 196.164062 156.265625 196.304688 156.265625 C 196.636719 156.265625 196.964844 156.078125 197.058594 155.792969 C 197.292969 155.371094 197.105469 154.851562 196.683594 154.613281 L 193.53125 153.007812 C 193.109375 152.769531 192.589844 152.960938 192.355469 153.386719 C 192.121094 153.808594 192.308594 154.332031 192.730469 154.566406 Z M 192.730469 154.566406 " fill-opacity="1" fill-rule="nonzero"/><g fill="#ffffff" fill-opacity="1"><g transform="translate(167.382048, 265.326223)"><g><path d="M 14.96875 -14.90625 C 15.238281 -14.90625 15.445312 -14.820312 15.59375 -14.65625 C 15.738281 -14.5 15.8125 -14.289062 15.8125 -14.03125 L 15.8125 -0.734375 C 15.8125 -0.484375 15.738281 -0.28125 15.59375 -0.125 C 15.457031 0.03125 15.265625 0.109375 15.015625 0.109375 C 14.765625 0.109375 14.578125 0.03125 14.453125 -0.125 C 14.328125 -0.28125 14.265625 -0.484375 14.265625 -0.734375 L 14.265625 -11.46875 L 9.703125 -2.734375 C 9.503906 -2.328125 9.21875 -2.125 8.84375 -2.125 C 8.476562 -2.125 8.191406 -2.328125 7.984375 -2.734375 L 3.40625 -11.359375 L 3.40625 -0.734375 C 3.40625 -0.484375 3.335938 -0.28125 3.203125 -0.125 C 3.066406 0.03125 2.875 0.109375 2.625 0.109375 C 2.375 0.109375 2.175781 0.03125 2.03125 -0.125 C 1.894531 -0.28125 1.828125 -0.484375 1.828125 -0.734375 L 1.828125 -14.03125 C 1.828125 -14.289062 1.898438 -14.5 2.046875 -14.65625 C 2.203125 -14.820312 2.414062 -14.90625 2.6875 -14.90625 C 3.039062 -14.90625 3.320312 -14.703125 3.53125 -14.296875 L 8.859375 -4.078125 L 14.140625 -14.296875 C 14.242188 -14.523438 14.363281 -14.679688 14.5 -14.765625 C 14.632812 -14.859375 14.789062 -14.90625 14.96875 -14.90625 Z M 14.96875 -14.90625 "/></g></g></g><g fill="#ffffff" fill-opacity="1"><g transform="translate(185.043119, 265.326223)"><g><path d="M 2.421875 0.109375 C 2.078125 0.109375 1.789062 0 1.5625 -0.21875 C 1.34375 -0.4375 1.234375 -0.722656 1.234375 -1.078125 C 1.234375 -1.421875 1.34375 -1.703125 1.5625 -1.921875 C 1.789062 -2.148438 2.078125 -2.265625 2.421875 -2.265625 C 2.734375 -2.265625 3 -2.148438 3.21875 -1.921875 C 3.4375 -1.703125 3.546875 -1.421875 3.546875 -1.078125 C 3.546875 -0.722656 3.4375 -0.4375 3.21875 -0.21875 C 3 0 2.734375 0.109375 2.421875 0.109375 Z M 2.421875 0.109375 "/></g></g></g><g fill="#ffffff" fill-opacity="1"><g transform="translate(189.852144, 265.326223)"><g><path d="M 6.546875 0.171875 C 5.503906 0.171875 4.5 0.015625 3.53125 -0.296875 C 2.570312 -0.617188 1.804688 -1.046875 1.234375 -1.578125 C 1.023438 -1.773438 0.921875 -2.019531 0.921875 -2.3125 C 0.921875 -2.507812 0.976562 -2.679688 1.09375 -2.828125 C 1.207031 -2.972656 1.335938 -3.046875 1.484375 -3.046875 C 1.671875 -3.046875 1.867188 -2.96875 2.078125 -2.8125 C 3.378906 -1.800781 4.863281 -1.296875 6.53125 -1.296875 C 7.738281 -1.296875 8.660156 -1.523438 9.296875 -1.984375 C 9.941406 -2.453125 10.265625 -3.113281 10.265625 -3.96875 C 10.265625 -4.457031 10.109375 -4.851562 9.796875 -5.15625 C 9.492188 -5.457031 9.085938 -5.695312 8.578125 -5.875 C 8.078125 -6.0625 7.398438 -6.253906 6.546875 -6.453125 C 5.398438 -6.710938 4.457031 -6.988281 3.71875 -7.28125 C 2.988281 -7.582031 2.394531 -8.003906 1.9375 -8.546875 C 1.488281 -9.085938 1.265625 -9.800781 1.265625 -10.6875 C 1.265625 -11.53125 1.488281 -12.273438 1.9375 -12.921875 C 2.394531 -13.578125 3.03125 -14.082031 3.84375 -14.4375 C 4.664062 -14.789062 5.601562 -14.96875 6.65625 -14.96875 C 7.632812 -14.96875 8.546875 -14.816406 9.390625 -14.515625 C 10.242188 -14.210938 10.957031 -13.785156 11.53125 -13.234375 C 11.75 -13.003906 11.859375 -12.757812 11.859375 -12.5 C 11.859375 -12.300781 11.800781 -12.128906 11.6875 -11.984375 C 11.582031 -11.835938 11.453125 -11.765625 11.296875 -11.765625 C 11.140625 -11.765625 10.9375 -11.835938 10.6875 -11.984375 C 10 -12.546875 9.359375 -12.9375 8.765625 -13.15625 C 8.179688 -13.382812 7.476562 -13.5 6.65625 -13.5 C 5.488281 -13.5 4.582031 -13.253906 3.9375 -12.765625 C 3.300781 -12.285156 2.984375 -11.613281 2.984375 -10.75 C 2.984375 -10.007812 3.265625 -9.453125 3.828125 -9.078125 C 4.398438 -8.710938 5.273438 -8.390625 6.453125 -8.109375 C 7.722656 -7.796875 8.722656 -7.507812 9.453125 -7.25 C 10.179688 -6.988281 10.785156 -6.597656 11.265625 -6.078125 C 11.742188 -5.566406 11.984375 -4.878906 11.984375 -4.015625 C 11.984375 -3.179688 11.753906 -2.445312 11.296875 -1.8125 C 10.847656 -1.1875 10.207031 -0.695312 9.375 -0.34375 C 8.550781 0 7.609375 0.171875 6.546875 0.171875 Z M 6.546875 0.171875 "/></g></g></g><g fill="#ffffff" fill-opacity="1"><g transform="translate(202.809201, 265.326223)"><g><path d="M 2.421875 0.109375 C 2.078125 0.109375 1.789062 0 1.5625 -0.21875 C 1.34375 -0.4375 1.234375 -0.722656 1.234375 -1.078125 C 1.234375 -1.421875 1.34375 -1.703125 1.5625 -1.921875 C 1.789062 -2.148438 2.078125 -2.265625 2.421875 -2.265625 C 2.734375 -2.265625 3 -2.148438 3.21875 -1.921875 C 3.4375 -1.703125 3.546875 -1.421875 3.546875 -1.078125 C 3.546875 -0.722656 3.4375 -0.4375 3.21875 -0.21875 C 3 0 2.734375 0.109375 2.421875 0.109375 Z M 2.421875 0.109375 "/></g></g></g></svg>